<svg width="720" height="200" viewBox="0 0 720 200" fill="none" xmlns="http://www.w3.org/2000/svg">
  <defs>
    <linearGradient id="pepperSkin" x1="36" y1="12" x2="128" y2="188" gradientUnits="userSpaceOnUse">
      <stop offset="0" stop-color="#FF5A3C" />
      <stop offset="0.5" stop-color="#E0302B" />
      <stop offset="1" stop-color="#B70F1F" />
    </linearGradient>
    <linearGradient id="pepperHighlight" x1="48" y1="24" x2="96" y2="168" gradientUnits="userSpaceOnUse">
      <stop offset="0" stop-color="#FF9285" stop-opacity="0.8" />
      <stop offset="1" stop-color="#FF9285" stop-opacity="0" />
    </linearGradient>
    <linearGradient id="pepperStem" x1="100" y1="24" x2="140" y2="72" gradientUnits="userSpaceOnUse">
      <stop offset="0" stop-color="#5BA350" />
      <stop offset="1" stop-color="#1E6B2D" />
    </linearGradient>
    <clipPath id="logoClip">
      <rect x="0" y="0" width="720" height="200" rx="24" />
    </clipPath>
  </defs>
  <g clip-path="url(#logoClip)">
    <rect width="720" height="200" fill="white" />
    <g transform="translate(24 12)">
      <path
        d="M146.5 47.8c-9.6 18.7-16.9 39.2-20.7 60.7-3.9 21.6-3.8 44.3 4.7 63.1 8.6 19.1 25.7 32 47.3 34.7 19.4 2.3 39.9-3.6 55.9-14.2-25.6 26.1-61.8 38.4-94.9 32.3-35.4-6.4-61.7-32.5-70.4-69.7-6.9-29.4-.4-63 14.7-91.3 16.1-30.5 41.6-54.6 69.1-63.9 8.5-2.8 23.1-1.2 26.1 6.9 3.9 10.5 11 13.8 15.2 20.4z"
        fill="url(#pepperSkin)"
      />
      <path
        d="M191.3 72.4c-7.9 27.9-12.2 60-10.5 88.6 1.3 21.4 7.1 38.9 18.9 51.9-11.5 5.1-24.5 7.3-37.3 5.7-21.6-2.7-38.7-15.6-47.3-34.7-4-8.9-6.2-18.6-6.8-28.4-.6-11.4.5-23.3 2.9-35.1 4.4-22.1 13.4-43.9 25.5-62.9 7.4-11.6 18.3-20.6 30.4-24.4 11.6-3.7 23.7 2.8 24.2 14.7z"
        fill="url(#pepperHighlight)"
      />
      <path
        d="M196.8 58.3c-9.8-18.4-21.2-33.9-35.2-35.9-17.8-2.6-33.4 12-45.5 27.1 8-21.2 21.2-39.6 39.4-50.5C172.4-9 199.5-5.3 215.9 12.4c7.7 8.2 11.6 20.3 11 31.4-.5 8.9-5.6 16.9-13.4 21.1-5.5-1.4-11.2-3.8-16.7-6.6z"
        fill="url(#pepperStem)"
      />
      <path
        d="M208.3 41.2c-5.1-10.2-11.2-18.7-18.9-23.9 3.3-9.8 7.8-18.5 13.3-25.5 11.7-15 32.5-17.7 47.8-7.3 11.8 8.1 18.5 24.3 15.8 38.6-.9 4.8-3.2 9.3-6.3 13-19.6 3.4-38.5 2.6-51.7 4.4z"
        fill="#1F5527"
      />
    </g>
    <g transform="translate(268 54)">
      <text
        x="0"
        y="82"
        font-family="'Poppins', 'Inter', 'Helvetica Neue', Arial, sans-serif"
        font-size="92"
        font-weight="700"
        letter-spacing="-0.04em"
        fill="#161616"
      >
        pepper
      </text>
      <text
        x="0"
        y="150"
        font-family="'Poppins', 'Inter', 'Helvetica Neue', Arial, sans-serif"
        font-size="92"
        font-weight="300"
        letter-spacing="0.08em"
        fill="#2E2E2E"
      >
        house
      </text>
      <rect x="4" y="102" width="180" height="6" rx="3" fill="#F13A2F" />
    </g>
  </g>
</svg>
